<svg width="12" height="12" viewBox="0 0 12 12" fill="none" xmlns="http://www.w3.org/2000/svg">
<path d="M5.5 2.5L3 4.5H1V7.5H3L5.5 9.5V2.5Z" stroke="white" stroke-linecap="round" stroke-linejoin="round"/>
<path fill-rule="evenodd" clip-rule="evenodd" d="M8.812 2.03043C8.96149 1.96853 9.13354 2.00277 9.24793 2.1172C10.2603 3.12985 10.829 4.50311 10.829 5.935C10.829 7.36688 10.2603 8.74015 9.24793 9.7528C9.13354 9.86722 8.96149 9.90147 8.812 9.83956C8.66252 9.77766 8.56505 9.63179 8.56505 9.47V2.4C8.56505 2.2382 8.66252 2.09234 8.812 2.03043ZM8.56505 2.58155V9.2C8.99581 8.48775 10.029 8 10.029 5.935C10 4 8.99581 3.2938 8.56505 2.58155ZM6.91725 3.88211C7.07348 3.72593 7.32675 3.72596 7.48293 3.8822C8.0266 4.42603 8.33201 5.16352 8.33201 5.9325C8.33201 6.70147 8.0266 7.43897 7.48293 7.9828C7.32675 8.13903 7.07348 8.13907 6.91725 7.98288C6.76102 7.8267 6.76098 7.57343 6.91716 7.4172C7.31085 7.02339 7.53202 6.48934 7.53202 5.9325C7.53202 5.37565 7.31085 4.84161 6.91716 4.4478C6.76098 4.29156 6.76102 4.0383 6.91725 3.88211Z" fill="white"/>
</svg>
